<mxfile modified="2021-06-17T11:09:12.985Z" host="app.diagrams.net" agent="5.0 (Windows NT 10.0; Win64; x64) AppleWebKit/537.36 (KHTML, like Gecko) Chrome/91.0.4472.77 Safari/537.36" etag="eqGqfod5IYbSx6c5y3k_" version="14.7.10" type="github">
  <diagram id="f106602c-feb2-e66a-4537-3a34d633f6aa" name="Page-1">
    <mxGraphModel dx="1185" dy="588" grid="1" gridSize="10" guides="1" tooltips="1" connect="1" arrows="1" fold="1" page="1" pageScale="1" pageWidth="1169" pageHeight="827" background="none" math="0" shadow="0">
      <root>
        <mxCell id="0" />
        <mxCell id="1" parent="0" />
        <mxCell id="14" value="" style="fillColor=#F6F6F6;strokeColor=none;shadow=0;gradientColor=none;fontSize=14;align=left;spacing=10;fontColor=#717171;9E9E9E;verticalAlign=top;spacingTop=-4;fontStyle=0;spacingLeft=40;html=1;" parent="1" vertex="1">
          <mxGeometry x="360" y="89.5" width="550" height="280.5" as="geometry" />
        </mxCell>
        <mxCell id="dVu_DJk5FjTDN_5h1LHO-1001" value="" style="shape=image;verticalLabelPosition=bottom;labelBackgroundColor=#ffffff;verticalAlign=top;aspect=fixed;imageAspect=0;image=https://dss0.bdstatic.com/70cFvHSh_Q1YnxGkpoWK1HF6hhy/it/u=1989177312,647456634&amp;fm=26&amp;gp=0.jpg;" vertex="1" parent="14">
          <mxGeometry x="33.6734693877551" y="8.898036253776436" width="21.289448059493374" height="20.651266558215198" as="geometry" />
        </mxCell>
        <mxCell id="dVu_DJk5FjTDN_5h1LHO-1003" value="HCI开放平台控制集群" style="strokeColor=#dddddd;fillColor=#ffffff;shadow=1;strokeWidth=1;rounded=1;absoluteArcSize=1;arcSize=2;fontSize=11;fontColor=#9E9E9E;align=center;html=1;" vertex="1" parent="14">
          <mxGeometry x="75.20408163265306" y="8.05060422960725" width="168.36734693877548" height="24.999244712990937" as="geometry" />
        </mxCell>
        <mxCell id="993" value="" style="strokeColor=#dddddd;fillColor=#ffffff;shadow=1;strokeWidth=1;rounded=1;absoluteArcSize=1;arcSize=2;fontSize=11;fontColor=#9E9E9E;align=center;html=1;" parent="14" vertex="1">
          <mxGeometry x="49.377755102040794" y="161.85679758308157" width="224.48979591836735" height="59.3202416918429" as="geometry" />
        </mxCell>
        <mxCell id="994" value="&lt;font color=&quot;#000000&quot;&gt;K8S API-SERVER&lt;/font&gt;&lt;br&gt;&lt;hr&gt;&lt;font style=&quot;font-size: 11px&quot;&gt;VKubernetes Pod&lt;/font&gt;" style="dashed=0;connectable=0;html=1;fillColor=#5184F3;strokeColor=none;shape=mxgraph.gcp2.hexIcon;prIcon=compute_engine;part=1;labelPosition=right;verticalLabelPosition=middle;align=left;verticalAlign=top;spacingLeft=5;fontColor=#999999;fontSize=12;spacingTop=-8;" parent="993" vertex="1">
          <mxGeometry width="44" height="39" relative="1" as="geometry">
            <mxPoint x="5" y="7" as="offset" />
          </mxGeometry>
        </mxCell>
        <mxCell id="991" value="" style="strokeColor=#dddddd;fillColor=#ffffff;shadow=1;strokeWidth=1;rounded=1;absoluteArcSize=1;arcSize=2;fontSize=11;fontColor=#9E9E9E;align=center;html=1;" parent="14" vertex="1">
          <mxGeometry x="299.99775510204074" y="161.85580060422961" width="224.48979591836735" height="59.3202416918429" as="geometry" />
        </mxCell>
        <mxCell id="992" value="&lt;font color=&quot;#000000&quot;&gt;HCI Controller Manager&lt;/font&gt;&lt;br&gt;&lt;hr&gt;&lt;span style=&quot;font-size: 11px&quot;&gt;Kubernetes Deployment&lt;/span&gt;" style="dashed=0;connectable=0;html=1;fillColor=#5184F3;strokeColor=none;shape=mxgraph.gcp2.hexIcon;prIcon=app_engine;part=1;labelPosition=right;verticalLabelPosition=middle;align=left;verticalAlign=top;spacingLeft=5;fontColor=#999999;fontSize=12;spacingTop=-8;" parent="991" vertex="1">
          <mxGeometry width="44" height="39" relative="1" as="geometry">
            <mxPoint x="5" y="7" as="offset" />
          </mxGeometry>
        </mxCell>
        <mxCell id="dVu_DJk5FjTDN_5h1LHO-1005" value="" style="edgeStyle=orthogonalEdgeStyle;rounded=0;orthogonalLoop=1;jettySize=auto;html=1;strokeColor=#4284F3;" edge="1" parent="14" source="993" target="991">
          <mxGeometry relative="1" as="geometry" />
        </mxCell>
        <mxCell id="989" value="" style="strokeColor=#dddddd;fillColor=#ffffff;shadow=1;strokeWidth=1;rounded=1;absoluteArcSize=1;arcSize=2;fontSize=11;fontColor=#9E9E9E;align=center;html=1;" parent="14" vertex="1">
          <mxGeometry x="75.19901960784314" y="59.74395770392749" width="172.84019607843138" height="50.84592145015106" as="geometry" />
        </mxCell>
        <mxCell id="990" value="Event Trigger" style="dashed=0;connectable=0;html=1;fillColor=#5184F3;strokeColor=none;shape=mxgraph.gcp2.hexIcon;prIcon=cloud_load_balancing;part=1;labelPosition=right;verticalLabelPosition=middle;align=left;verticalAlign=middle;spacingLeft=5;fontColor=#999999;fontSize=12;" parent="989" vertex="1">
          <mxGeometry y="0.5" width="44" height="39" relative="1" as="geometry">
            <mxPoint x="5" y="-19.5" as="offset" />
          </mxGeometry>
        </mxCell>
        <mxCell id="1000" style="edgeStyle=orthogonalEdgeStyle;rounded=0;elbow=vertical;html=1;labelBackgroundColor=none;startFill=1;startSize=4;endArrow=blockThin;endFill=1;endSize=4;jettySize=auto;orthogonalLoop=1;strokeColor=#4284F3;strokeWidth=2;fontSize=12;fontColor=#000000;align=left;dashed=0;" parent="14" source="989" target="993" edge="1">
          <mxGeometry relative="1" as="geometry" />
        </mxCell>
        <mxCell id="997" value="TAPD&lt;br&gt;GIT&lt;br&gt;Event" style="rounded=1;absoluteArcSize=1;arcSize=2;html=1;strokeColor=none;gradientColor=none;shadow=0;dashed=0;fontSize=12;fontColor=#9E9E9E;align=left;verticalAlign=top;spacing=10;spacingTop=-4;fillColor=#F1F8E9;" parent="1" vertex="1">
          <mxGeometry x="170" y="117.75" width="90" height="230" as="geometry" />
        </mxCell>
        <mxCell id="818" value="物理架构:&amp;nbsp; HCI开放平台" style="fillColor=#4DA1F5;strokeColor=none;shadow=1;gradientColor=none;fontSize=14;align=left;spacingLeft=50;fontColor=#ffffff;html=1;" parent="1" vertex="1">
          <mxGeometry x="170" y="40" width="740" height="40" as="geometry" />
        </mxCell>
        <mxCell id="985" value="" style="strokeColor=#dddddd;fillColor=#ffffff;shadow=1;strokeWidth=1;rounded=1;absoluteArcSize=1;arcSize=2;labelPosition=center;verticalLabelPosition=middle;align=center;verticalAlign=bottom;spacingLeft=0;fontColor=#999999;fontSize=12;whiteSpace=wrap;spacingBottom=2;html=1;" parent="1" vertex="1">
          <mxGeometry x="280" y="139.67" width="70" height="70" as="geometry" />
        </mxCell>
        <mxCell id="986" value="" style="dashed=0;connectable=0;html=1;fillColor=#757575;strokeColor=none;shape=mxgraph.gcp2.mobile_devices;part=1;" parent="985" vertex="1">
          <mxGeometry x="0.5" width="50" height="36.5" relative="1" as="geometry">
            <mxPoint x="-25" y="16.75" as="offset" />
          </mxGeometry>
        </mxCell>
        <mxCell id="dVu_DJk5FjTDN_5h1LHO-1008" style="edgeStyle=orthogonalEdgeStyle;rounded=0;elbow=vertical;html=1;labelBackgroundColor=none;startFill=1;startSize=4;endArrow=blockThin;endFill=1;endSize=4;jettySize=auto;orthogonalLoop=1;strokeColor=#4284F3;strokeWidth=2;fontSize=12;fontColor=#000000;align=left;dashed=0;entryX=0;entryY=0.5;entryDx=0;entryDy=0;exitX=1;exitY=0.25;exitDx=0;exitDy=0;" edge="1" parent="1" source="997" target="985">
          <mxGeometry relative="1" as="geometry">
            <mxPoint x="140" y="175" as="sourcePoint" />
            <mxPoint x="121.3877551020405" y="160.10000000000005" as="targetPoint" />
            <Array as="points" />
          </mxGeometry>
        </mxCell>
        <mxCell id="dVu_DJk5FjTDN_5h1LHO-1010" style="edgeStyle=orthogonalEdgeStyle;rounded=0;elbow=vertical;html=1;labelBackgroundColor=none;startFill=1;startSize=4;endArrow=blockThin;endFill=1;endSize=4;jettySize=auto;orthogonalLoop=1;strokeWidth=2;fontSize=12;fontColor=#000000;align=left;dashed=0;entryX=0;entryY=0.5;entryDx=0;entryDy=0;exitX=1;exitY=0.5;exitDx=0;exitDy=0;strokeColor=#4284F3;" edge="1" parent="1" source="985" target="989">
          <mxGeometry relative="1" as="geometry">
            <mxPoint x="110" y="185" as="sourcePoint" />
            <mxPoint x="200" y="185" as="targetPoint" />
            <Array as="points">
              <mxPoint x="430" y="175" />
              <mxPoint x="430" y="175" />
            </Array>
          </mxGeometry>
        </mxCell>
        <mxCell id="dVu_DJk5FjTDN_5h1LHO-1011" value="Event Transfer" style="text;html=1;align=center;verticalAlign=middle;resizable=0;points=[];autosize=1;strokeColor=none;" vertex="1" parent="1">
          <mxGeometry x="265" y="222.75" width="90" height="20" as="geometry" />
        </mxCell>
        <mxCell id="dVu_DJk5FjTDN_5h1LHO-1012" value="" style="fillColor=#F6F6F6;strokeColor=none;shadow=0;gradientColor=none;fontSize=14;align=left;spacing=10;fontColor=#717171;9E9E9E;verticalAlign=top;spacingTop=-4;fontStyle=0;spacingLeft=40;html=1;" vertex="1" parent="1">
          <mxGeometry x="360" y="390" width="550" height="280.5" as="geometry" />
        </mxCell>
        <mxCell id="dVu_DJk5FjTDN_5h1LHO-1013" value="" style="shape=image;verticalLabelPosition=bottom;labelBackgroundColor=#ffffff;verticalAlign=top;aspect=fixed;imageAspect=0;image=https://dss0.bdstatic.com/70cFvHSh_Q1YnxGkpoWK1HF6hhy/it/u=1989177312,647456634&amp;fm=26&amp;gp=0.jpg;" vertex="1" parent="dVu_DJk5FjTDN_5h1LHO-1012">
          <mxGeometry x="33.67" y="8.6" width="22.06" height="21.4" as="geometry" />
        </mxCell>
        <mxCell id="dVu_DJk5FjTDN_5h1LHO-1014" value="HCI开放平台环境集群" style="strokeColor=#dddddd;fillColor=#ffffff;shadow=1;strokeWidth=1;rounded=1;absoluteArcSize=1;arcSize=2;fontSize=11;fontColor=#9E9E9E;align=center;html=1;" vertex="1" parent="dVu_DJk5FjTDN_5h1LHO-1012">
          <mxGeometry x="62.60857142857143" y="8.59931854199683" width="223.3628571428571" height="24.159374354027424" as="geometry" />
        </mxCell>
        <mxCell id="dVu_DJk5FjTDN_5h1LHO-1024" value="Personal Environment" style="strokeColor=#dddddd;fillColor=#ffffff;shadow=1;strokeWidth=1;rounded=1;absoluteArcSize=1;arcSize=2;fontSize=11;fontColor=#9E9E9E;align=center;html=1;" vertex="1" parent="dVu_DJk5FjTDN_5h1LHO-1012">
          <mxGeometry x="36.010000000000005" y="190" width="281.23" height="51.27" as="geometry" />
        </mxCell>
        <mxCell id="dVu_DJk5FjTDN_5h1LHO-1026" value="Personal Environment" style="strokeColor=#dddddd;fillColor=#ffffff;shadow=1;strokeWidth=1;rounded=1;absoluteArcSize=1;arcSize=2;fontSize=11;fontColor=#9E9E9E;align=center;html=1;" vertex="1" parent="dVu_DJk5FjTDN_5h1LHO-1012">
          <mxGeometry x="33.67" y="120" width="281.23" height="51.27" as="geometry" />
        </mxCell>
        <mxCell id="dVu_DJk5FjTDN_5h1LHO-1028" value="" style="strokeColor=#dddddd;fillColor=#ffffff;shadow=1;strokeWidth=1;rounded=1;absoluteArcSize=1;arcSize=2;fontSize=11;fontColor=#9E9E9E;align=center;html=1;" vertex="1" parent="dVu_DJk5FjTDN_5h1LHO-1012">
          <mxGeometry x="317.24" y="16.120000000000005" width="190" height="56.6" as="geometry" />
        </mxCell>
        <mxCell id="dVu_DJk5FjTDN_5h1LHO-1029" value="&lt;font color=&quot;#000000&quot;&gt;K8S API-SERVER&lt;/font&gt;&lt;br&gt;&lt;hr&gt;&lt;font style=&quot;font-size: 11px&quot;&gt;VKubernetes Pod&lt;/font&gt;" style="dashed=0;connectable=0;html=1;fillColor=#5184F3;strokeColor=none;shape=mxgraph.gcp2.hexIcon;prIcon=compute_engine;part=1;labelPosition=right;verticalLabelPosition=middle;align=left;verticalAlign=top;spacingLeft=5;fontColor=#999999;fontSize=12;spacingTop=-8;" vertex="1" parent="dVu_DJk5FjTDN_5h1LHO-1028">
          <mxGeometry width="44" height="39" relative="1" as="geometry">
            <mxPoint x="5" y="7" as="offset" />
          </mxGeometry>
        </mxCell>
        <mxCell id="dVu_DJk5FjTDN_5h1LHO-1033" style="edgeStyle=orthogonalEdgeStyle;rounded=0;orthogonalLoop=1;jettySize=auto;html=1;exitX=0.5;exitY=1;exitDx=0;exitDy=0;strokeColor=#4284F3;entryX=1;entryY=0.5;entryDx=0;entryDy=0;" edge="1" parent="dVu_DJk5FjTDN_5h1LHO-1012" source="dVu_DJk5FjTDN_5h1LHO-1028" target="dVu_DJk5FjTDN_5h1LHO-1024">
          <mxGeometry relative="1" as="geometry">
            <mxPoint x="-88.19241982507356" y="201.09592145015108" as="sourcePoint" />
            <mxPoint x="114.3336151603499" y="250.20000000000005" as="targetPoint" />
            <Array as="points">
              <mxPoint x="412" y="216" />
            </Array>
          </mxGeometry>
        </mxCell>
        <mxCell id="dVu_DJk5FjTDN_5h1LHO-1034" style="edgeStyle=orthogonalEdgeStyle;rounded=0;orthogonalLoop=1;jettySize=auto;html=1;exitX=0.5;exitY=1;exitDx=0;exitDy=0;strokeColor=#4284F3;entryX=1;entryY=0.5;entryDx=0;entryDy=0;" edge="1" parent="dVu_DJk5FjTDN_5h1LHO-1012" source="dVu_DJk5FjTDN_5h1LHO-1028" target="dVu_DJk5FjTDN_5h1LHO-1026">
          <mxGeometry relative="1" as="geometry">
            <mxPoint x="467.10329446064134" y="250.1569184290031" as="sourcePoint" />
            <mxPoint x="487.1428571428571" y="180.62620772946855" as="targetPoint" />
            <Array as="points">
              <mxPoint x="412" y="146" />
            </Array>
          </mxGeometry>
        </mxCell>
        <mxCell id="dVu_DJk5FjTDN_5h1LHO-1045" style="edgeStyle=orthogonalEdgeStyle;rounded=0;orthogonalLoop=1;jettySize=auto;html=1;exitX=0;exitY=0.25;exitDx=0;exitDy=0;entryX=1;entryY=0.5;entryDx=0;entryDy=0;strokeColor=#4284F3;" edge="1" parent="dVu_DJk5FjTDN_5h1LHO-1012" source="dVu_DJk5FjTDN_5h1LHO-1037" target="dVu_DJk5FjTDN_5h1LHO-1026">
          <mxGeometry relative="1" as="geometry">
            <Array as="points">
              <mxPoint x="442" y="146" />
            </Array>
          </mxGeometry>
        </mxCell>
        <mxCell id="dVu_DJk5FjTDN_5h1LHO-1046" style="edgeStyle=orthogonalEdgeStyle;rounded=0;orthogonalLoop=1;jettySize=auto;html=1;exitX=0;exitY=0.75;exitDx=0;exitDy=0;entryX=1;entryY=0.5;entryDx=0;entryDy=0;strokeColor=#4284F3;" edge="1" parent="dVu_DJk5FjTDN_5h1LHO-1012" source="dVu_DJk5FjTDN_5h1LHO-1037" target="dVu_DJk5FjTDN_5h1LHO-1024">
          <mxGeometry relative="1" as="geometry">
            <Array as="points">
              <mxPoint x="442" y="216" />
            </Array>
          </mxGeometry>
        </mxCell>
        <mxCell id="dVu_DJk5FjTDN_5h1LHO-1037" value="" style="shape=image;verticalLabelPosition=bottom;labelBackgroundColor=#ffffff;verticalAlign=top;aspect=fixed;imageAspect=0;image=https://dss3.bdstatic.com/70cFv8Sh_Q1YnxGkpoWK1HF6hhy/it/u=3704943535,3575614254&amp;fm=26&amp;gp=0.jpg;" vertex="1" parent="dVu_DJk5FjTDN_5h1LHO-1012">
          <mxGeometry x="442.24" y="140" width="82.25" height="82.25" as="geometry" />
        </mxCell>
        <mxCell id="dVu_DJk5FjTDN_5h1LHO-1025" value="" style="shape=image;verticalLabelPosition=bottom;labelBackgroundColor=#ffffff;verticalAlign=top;aspect=fixed;imageAspect=0;image=https://dss0.bdstatic.com/70cFvHSh_Q1YnxGkpoWK1HF6hhy/it/u=1989177312,647456634&amp;fm=26&amp;gp=0.jpg;" vertex="1" parent="1">
          <mxGeometry x="440.0034693877551" y="594.9980362537765" width="21.289448059493374" height="20.651266558215198" as="geometry" />
        </mxCell>
        <mxCell id="dVu_DJk5FjTDN_5h1LHO-1027" value="" style="shape=image;verticalLabelPosition=bottom;labelBackgroundColor=#ffffff;verticalAlign=top;aspect=fixed;imageAspect=0;image=https://dss0.bdstatic.com/70cFvHSh_Q1YnxGkpoWK1HF6hhy/it/u=1989177312,647456634&amp;fm=26&amp;gp=0.jpg;" vertex="1" parent="1">
          <mxGeometry x="440.0034693877551" y="526.9280362537764" width="21.289448059493374" height="20.651266558215198" as="geometry" />
        </mxCell>
        <mxCell id="dVu_DJk5FjTDN_5h1LHO-1030" style="edgeStyle=orthogonalEdgeStyle;rounded=0;orthogonalLoop=1;jettySize=auto;html=1;exitX=0.5;exitY=1;exitDx=0;exitDy=0;strokeColor=#4284F3;" edge="1" parent="1" source="991" target="dVu_DJk5FjTDN_5h1LHO-1028">
          <mxGeometry relative="1" as="geometry" />
        </mxCell>
        <mxCell id="dVu_DJk5FjTDN_5h1LHO-1043" style="edgeStyle=orthogonalEdgeStyle;rounded=0;orthogonalLoop=1;jettySize=auto;html=1;exitX=1;exitY=0.5;exitDx=0;exitDy=0;entryX=1;entryY=0.5;entryDx=0;entryDy=0;strokeColor=#4284F3;" edge="1" parent="1" source="991" target="dVu_DJk5FjTDN_5h1LHO-1037">
          <mxGeometry relative="1" as="geometry" />
        </mxCell>
      </root>
    </mxGraphModel>
  </diagram>
</mxfile>
